<?xml version="1.0" standalone="no"?>
<!DOCTYPE svg PUBLIC "-//W3C//DTD SVG 20010904//EN"
 "http://www.w3.org/TR/2001/REC-SVG-20010904/DTD/svg10.dtd">
<svg version="1.0" xmlns="http://www.w3.org/2000/svg"
 width="900.000000pt" height="900.000000pt" viewBox="0 0 900.000000 900.000000"
 preserveAspectRatio="xMidYMid meet">
<metadata>
Created by potrace 1.11, written by Peter Selinger 2001-2013
</metadata>
<g transform="translate(0.000000,900.000000) scale(0.100000,-0.100000)"
fill="#000000" stroke="none">
<path d="M4219 7676 c-90 -32 -174 -111 -216 -203 -34 -75 -42 -195 -18 -279
76 -265 370 -355 559 -170 160 156 164 399 8 565 -65 69 -137 101 -227 100
-38 0 -86 -6 -106 -13z"/>
<path d="M4378 6260 c-32 -21 -82 -47 -111 -59 -118 -44 -313 -71 -514 -71
l-123 0 0 -141 0 -142 73 6 c39 4 141 10 226 13 l153 7 -6 -49 c-4 -27 -10
-798 -15 -1714 -5 -916 -12 -1718 -15 -1784 -19 -381 -108 -610 -270 -693 -67
-34 -179 -42 -259 -19 l-57 17 0 47 c0 71 -38 169 -85 218 -48 50 -91 64 -196
64 -98 0 -163 -30 -214 -100 -48 -65 -65 -119 -65 -205 0 -60 5 -82 30 -132
79 -158 219 -222 483 -223 315 0 578 108 784 323 207 217 336 518 400 938 16
104 17 266 20 1927 l4 1812 -93 0 c-91 -1 -94 -1 -150 -40z"/>
<path d="M5565 3506 c-145 -36 -279 -161 -334 -311 -13 -33 -25 -95 -28 -141
-16 -231 101 -431 297 -508 115 -45 269 -27 378 44 147 95 222 239 222 424 0
151 -41 259 -136 364 -104 115 -255 164 -399 128z"/>
</g>
</svg>
